<svg xmlns="http://www.w3.org/2000/svg" viewBox="0 0 231.01 721.13"><defs><style>.cls-1{fill:#0bb592;}.cls-2{fill:#5b5b5b;}.cls-3{fill:#bad9e9;}.cls-4{fill:#6fb4d9;}.cls-5,.cls-7{fill:#137eb4;}.cls-6{fill:#fff;}.cls-7{font-size:18px;font-family:Poppins-SemiBold, Poppins;font-weight:600;}.cls-8,.cls-9{fill:#024863;}.cls-9{letter-spacing:0em;}</style></defs><g id="Capa_2" data-name="Capa 2"><g id="Capa_1-2" data-name="Capa 1"><path class="cls-1" d="M110.5,646.75v-2a5,5,0,0,1,10,0v2a5,5,0,0,1-10,0Z"/><path class="cls-1" d="M110.5,438.4v-2a5,5,0,0,1,10,0v2a5,5,0,0,1-10,0Z"/><path class="cls-2" d="M111,173.64V171.8a4.56,4.56,0,1,1,9.12,0v1.84a4.56,4.56,0,1,1-9.12,0Z"/><path class="cls-2" d="M111,141.51v-1.84a4.56,4.56,0,0,1,9.12,0v1.84a4.56,4.56,0,0,1-9.12,0Z"/><path class="cls-2" d="M111,388.74v-1.83a4.56,4.56,0,1,1,9.12,0v1.83a4.56,4.56,0,1,1-9.12,0Z"/><path class="cls-2" d="M111,356.61v-1.84a4.56,4.56,0,1,1,9.12,0v1.84a4.56,4.56,0,1,1-9.12,0Z"/><path class="cls-2" d="M111,578.86V577a4.56,4.56,0,1,1,9.12,0v1.84a4.56,4.56,0,1,1-9.12,0Z"/><path class="cls-2" d="M111,546.72v-1.83a4.56,4.56,0,1,1,9.12,0v1.83a4.56,4.56,0,1,1-9.12,0Z"/><rect class="cls-3" x="53.4" y="1.29" width="124.2" height="44.12" rx="10.31"/><path class="cls-4" d="M166.57,46.71H64.43A12.34,12.34,0,0,1,52.11,34.39V12.33A12.34,12.34,0,0,1,64.43,0H166.57A12.34,12.34,0,0,1,178.9,12.33V34.39A12.34,12.34,0,0,1,166.57,46.71ZM64.43,2.59a9.75,9.75,0,0,0-9.74,9.74V34.39a9.74,9.74,0,0,0,9.74,9.73H166.57a9.75,9.75,0,0,0,9.74-9.74V12.33a9.75,9.75,0,0,0-9.74-9.74Z"/><path class="cls-5" d="M136.8,68.36a1.13,1.13,0,0,1-1.09-.83L127.6,37.26a1.12,1.12,0,0,1,1.08-1.41,1,1,0,0,1,.3,0L159.24,44a1.1,1.1,0,0,1,.8.79,1.14,1.14,0,0,1-.23,1L143.62,51.9l-6.1,16.19A1.06,1.06,0,0,1,136.8,68.36Z"/><path class="cls-6" d="M128.68,36.31h0a.55.55,0,0,1,.18,0L144,40.39l15.13,4a.65.65,0,0,1,.47.47.62.62,0,0,1-.07.51l-15.87,6-.39.14-.15.39-6,15.87a.64.64,0,0,1-.34.1.66.66,0,0,1-.64-.49L132.1,52.27l-4-15.13a.64.64,0,0,1,.11-.57.66.66,0,0,1,.52-.26m0-.93a1.6,1.6,0,0,0-1.53,2l4.06,15.13,4.06,15.14a1.58,1.58,0,0,0,2.64.71L144,52.26l16.09-6.06a1.58,1.58,0,0,0-.71-2.65l-15.13-4.06-15.14-4.05a1.51,1.51,0,0,0-.41-.06Z"/><path class="cls-5" d="M71.2,19.6a6.24,6.24,0,0,1,2.39-2.39,6.79,6.79,0,0,1,3.4-.86,6.72,6.72,0,0,1,3.86,1.13,5.93,5.93,0,0,1,2.31,3.13h-3a3.15,3.15,0,0,0-1.27-1.42A3.73,3.73,0,0,0,77,18.72a3.84,3.84,0,0,0-2,.54,3.68,3.68,0,0,0-1.4,1.52,5,5,0,0,0-.5,2.29,5,5,0,0,0,.5,2.29,3.62,3.62,0,0,0,1.4,1.52,3.84,3.84,0,0,0,2,.54,3.64,3.64,0,0,0,1.89-.48,3.15,3.15,0,0,0,1.27-1.42h3a5.83,5.83,0,0,1-2.3,3.13A6.7,6.7,0,0,1,77,29.77a6.78,6.78,0,0,1-3.4-.85,6.28,6.28,0,0,1-2.39-2.38,7.28,7.28,0,0,1,0-6.94Z"/><path class="cls-5" d="M87.34,29.16a4.77,4.77,0,0,1-1.89-1.89,5.66,5.66,0,0,1-.69-2.82,5.58,5.58,0,0,1,.71-2.83,4.94,4.94,0,0,1,1.93-1.89,5.9,5.9,0,0,1,5.46,0,5,5,0,0,1,1.93,1.89,5.58,5.58,0,0,1,.7,2.83,5.48,5.48,0,0,1-.72,2.82,5,5,0,0,1-2,1.89,5.64,5.64,0,0,1-2.76.67A5.47,5.47,0,0,1,87.34,29.16Zm4.06-2a2.62,2.62,0,0,0,1-1.05,3.52,3.52,0,0,0,.37-1.69A3.13,3.13,0,0,0,92,22.16a2.58,2.58,0,0,0-1.91-.8,2.52,2.52,0,0,0-1.89.8,3.17,3.17,0,0,0-.76,2.29,3.19,3.19,0,0,0,.74,2.28,2.43,2.43,0,0,0,1.87.8A2.76,2.76,0,0,0,91.4,27.19Z"/><path class="cls-5" d="M106.23,20.26a4.51,4.51,0,0,1,1.14,3.28v6.12h-2.63V23.9a2.73,2.73,0,0,0-.62-1.91,2.2,2.2,0,0,0-1.7-.67,2.23,2.23,0,0,0-1.72.67,2.68,2.68,0,0,0-.63,1.91v5.76H97.43V19.23h2.64v1.3a3.55,3.55,0,0,1,1.35-1.06,4.08,4.08,0,0,1,1.79-.39A4,4,0,0,1,106.23,20.26Z"/><path class="cls-5" d="M113,21.4v5a1,1,0,0,0,.25.76,1.25,1.25,0,0,0,.86.24h1.22v2.22h-1.66q-3.33,0-3.33-3.24v-5h-1.24V19.23h1.24V16.65H113v2.58h2.33V21.4Z"/><path class="cls-5" d="M121.14,19.55a3.77,3.77,0,0,1,1.88-.47v2.77h-.7a2.65,2.65,0,0,0-1.87.58,2.71,2.71,0,0,0-.63,2v5.19h-2.64V19.23h2.64v1.62A3.82,3.82,0,0,1,121.14,19.55Z"/><path class="cls-5" d="M124.74,21.6a4.66,4.66,0,0,1,1.71-1.88,4.58,4.58,0,0,1,2.42-.66,4.34,4.34,0,0,1,2,.47,4.2,4.2,0,0,1,1.4,1.19V19.23H135V29.66h-2.65V28.14a4,4,0,0,1-1.4,1.21,4.33,4.33,0,0,1-2.07.48,4.4,4.4,0,0,1-2.4-.68,4.74,4.74,0,0,1-1.71-1.91,6.63,6.63,0,0,1,0-5.64Zm7.2,1.2a2.58,2.58,0,0,0-1-1.05,2.63,2.63,0,0,0-1.37-.37,2.69,2.69,0,0,0-1.36.36,2.64,2.64,0,0,0-1,1,3.25,3.25,0,0,0-.39,1.63,3.35,3.35,0,0,0,.39,1.65,2.78,2.78,0,0,0,1,1.08,2.63,2.63,0,0,0,1.35.38,2.73,2.73,0,0,0,1.37-.37,2.67,2.67,0,0,0,1-1.06,3.34,3.34,0,0,0,.38-1.64A3.41,3.41,0,0,0,131.94,22.8Z"/><path class="cls-5" d="M140.62,21.4v5a1,1,0,0,0,.25.76,1.25,1.25,0,0,0,.86.24H143v2.22H141.3q-3.33,0-3.33-3.24v-5h-1.25V19.23H138V16.65h2.65v2.58H143V21.4Z"/><path class="cls-5" d="M144.81,21.6a4.66,4.66,0,0,1,1.71-1.88,4.56,4.56,0,0,1,2.42-.66,4.19,4.19,0,0,1,3.45,1.66V19.23H155V29.66h-2.65V28.14A3.91,3.91,0,0,1,151,29.35a4.26,4.26,0,0,1-2.06.48,4.36,4.36,0,0,1-2.4-.68,4.74,4.74,0,0,1-1.71-1.91,6.63,6.63,0,0,1,0-5.64Zm7.2,1.2a2.58,2.58,0,0,0-1-1.05,2.63,2.63,0,0,0-1.37-.37,2.69,2.69,0,0,0-1.36.36,2.58,2.58,0,0,0-1,1,3.25,3.25,0,0,0-.39,1.63,3.35,3.35,0,0,0,.39,1.65,2.71,2.71,0,0,0,1,1.08,2.6,2.6,0,0,0,1.35.38,2.73,2.73,0,0,0,1.37-.37,2.67,2.67,0,0,0,1-1.06,3.34,3.34,0,0,0,.38-1.64A3.41,3.41,0,0,0,152,22.8Z"/><path class="cls-5" d="M161.58,19.55a3.75,3.75,0,0,1,1.88-.47v2.77h-.7a2.65,2.65,0,0,0-1.87.58,2.71,2.71,0,0,0-.63,2v5.19h-2.64V19.23h2.64v1.62A3.73,3.73,0,0,1,161.58,19.55Z"/><text class="cls-7" transform="translate(0 89.15)">Solo debés hacer click en<tspan class="cls-8"><tspan x="42.26" y="21.6">contratar ahora</tspan></tspan></text><rect class="cls-3" x="78.63" y="196.87" width="75.75" height="74.22" rx="12.43"/><path class="cls-4" d="M142.88,272.15H90.13c-7,0-12.62-5.34-12.62-11.9V207.72c0-6.56,5.66-11.9,12.62-11.9h52.75c7,0,12.62,5.34,12.62,11.9v52.53C155.5,266.81,149.84,272.15,142.88,272.15ZM90.13,197.93c-5.72,0-10.38,4.39-10.38,9.79v52.53c0,5.4,4.66,9.79,10.38,9.79h52.75c5.72,0,10.38-4.39,10.38-9.79V207.72c0-5.4-4.66-9.79-10.38-9.79Z"/><path class="cls-5" d="M96.66,204.56v1.84H91.92v2.91h3.63v1.81H91.92v4.81H89.64V204.56Z"/><path class="cls-5" d="M99.93,215.5a4.15,4.15,0,0,1-1.63-1.64,5.24,5.24,0,0,1,0-4.89,4.29,4.29,0,0,1,1.67-1.63,5.11,5.11,0,0,1,4.73,0,4.29,4.29,0,0,1,1.67,1.63,4.89,4.89,0,0,1,.61,2.45,4.69,4.69,0,0,1-.63,2.44,4.36,4.36,0,0,1-1.69,1.64,5,5,0,0,1-2.39.58A4.84,4.84,0,0,1,99.93,215.5Zm3.51-1.71a2.21,2.21,0,0,0,.88-.91,3.12,3.12,0,0,0,.32-1.46,2.71,2.71,0,0,0-.67-2,2.26,2.26,0,0,0-1.66-.69,2.16,2.16,0,0,0-1.63.69,2.75,2.75,0,0,0-.66,2,2.83,2.83,0,0,0,.64,2,2.12,2.12,0,0,0,1.62.69A2.36,2.36,0,0,0,103.44,213.79Z"/><path class="cls-5" d="M112.09,207.18a3.25,3.25,0,0,1,1.62-.41v2.4h-.6a1.89,1.89,0,0,0-2.16,2.26v4.5h-2.29v-9H111v1.4A3.22,3.22,0,0,1,112.09,207.18Z"/><path class="cls-5" d="M129.13,207.79a3.84,3.84,0,0,1,1,2.84v5.3h-2.28v-5a2.26,2.26,0,0,0-.54-1.62,1.94,1.94,0,0,0-1.46-.56,2,2,0,0,0-1.48.56,2.26,2.26,0,0,0-.54,1.62v5h-2.28v-5a2.26,2.26,0,0,0-.54-1.62,2,2,0,0,0-1.47-.56,2,2,0,0,0-1.49.56,2.26,2.26,0,0,0-.54,1.62v5h-2.28v-9h2.28V208a3.05,3.05,0,0,1,1.13-.9,3.49,3.49,0,0,1,1.52-.33,3.88,3.88,0,0,1,1.89.45,3.18,3.18,0,0,1,1.29,1.28,3.21,3.21,0,0,1,1.28-1.25,3.58,3.58,0,0,1,1.81-.48A3.62,3.62,0,0,1,129.13,207.79Z"/><line class="cls-3" x1="88.2" y1="226.86" x2="110.91" y2="226.86"/><path class="cls-6" d="M110.91,228H88.2a1.12,1.12,0,0,1,0-2.24h22.71a1.12,1.12,0,0,1,0,2.24Z"/><line class="cls-3" x1="122.1" y1="226.86" x2="144.81" y2="226.86"/><path class="cls-6" d="M144.81,228H122.1a1.12,1.12,0,0,1,0-2.24h22.71a1.12,1.12,0,0,1,0,2.24Z"/><line class="cls-3" x1="88.2" y1="233.57" x2="100.19" y2="233.57"/><path class="cls-6" d="M100.19,234.69h-12a1.12,1.12,0,1,1,0-2.24h12a1.12,1.12,0,0,1,0,2.24Z"/><line class="cls-3" x1="88.2" y1="240.29" x2="116.5" y2="240.29"/><path class="cls-6" d="M116.5,241.41H88.2a1.12,1.12,0,0,1,0-2.24h28.3a1.12,1.12,0,0,1,0,2.24Z"/><line class="cls-3" x1="110.91" y1="233.57" x2="144.81" y2="233.57"/><path class="cls-6" d="M144.81,234.69h-33.9a1.12,1.12,0,1,1,0-2.24h33.9a1.12,1.12,0,0,1,0,2.24Z"/><text class="cls-7" transform="translate(26.95 304.16)">Llenar el formulario<tspan x="26.48" y="21.6">con </tspan><tspan class="cls-9" x="64.98" y="21.6">tus datos</tspan></text><rect class="cls-3" x="62.15" y="411.15" width="106.71" height="50.77" rx="3.91"/><path class="cls-4" d="M164.93,463.24H66.07a5.4,5.4,0,0,1-5.14-5.61v-42.2a5.39,5.39,0,0,1,5.14-5.6h98.86a5.39,5.39,0,0,1,5.14,5.6v42.2A5.39,5.39,0,0,1,164.93,463.24ZM66.07,412.47a2.85,2.85,0,0,0-2.71,3v42.2a2.84,2.84,0,0,0,2.71,3h98.86a2.85,2.85,0,0,0,2.72-3v-42.2a2.85,2.85,0,0,0-2.72-3Z"/><path class="cls-5" d="M122.94,444.5a6.61,6.61,0,0,1-2.52,2.42A8.9,8.9,0,0,1,116.5,448v2.62h-2.06V448a9.1,9.1,0,0,1-5.2-1.95,5.77,5.77,0,0,1-2-4.5h4.84a2.84,2.84,0,0,0,2.39,2.81V438.2A27.79,27.79,0,0,1,110.7,437a6,6,0,0,1-2.46-1.87,5.51,5.51,0,0,1-1-3.51,5.8,5.8,0,0,1,2-4.58,8.7,8.7,0,0,1,5.21-2v-2.62h2.06V425a8.31,8.31,0,0,1,5,1.87,6.27,6.27,0,0,1,2.08,4.45h-4.87a2.93,2.93,0,0,0-.66-1.63,3.06,3.06,0,0,0-1.5-1v6.09a30.53,30.53,0,0,1,3.82,1.18,6,6,0,0,1,2.44,1.84,5.39,5.39,0,0,1,1,3.5A6.12,6.12,0,0,1,122.94,444.5Zm-10.37-11.35a4.69,4.69,0,0,0,1.87,1.08v-5.58a3,3,0,0,0-1.84.87,2.65,2.65,0,0,0-.68,1.9A2.38,2.38,0,0,0,112.57,433.15Zm5.85,10.27a2.7,2.7,0,0,0,.69-1.87,2.25,2.25,0,0,0-.67-1.71,5.13,5.13,0,0,0-1.94-1.06v5.64A3.24,3.24,0,0,0,118.42,443.42Z"/><text class="cls-7" transform="translate(22.82 495.9)">Una vez realizado el<tspan class="cls-8"><tspan x="12.99" y="21.6">pago electrónico</tspan></tspan></text><path class="cls-3" d="M159.91,604.22a2.89,2.89,0,0,0-2.31-1.29H75.39A3,3,0,0,0,73,604.28h0a5.3,5.3,0,0,0-.91,3.05v43.45c0,2.44,1.46,4.41,3.26,4.41H157.6c1.81,0,3.27-2,3.27-4.41V607.34A5.28,5.28,0,0,0,159.91,604.22Z"/><path class="cls-4" d="M161,603.41a4.28,4.28,0,0,0-3.4-1.84H75.39A4.25,4.25,0,0,0,72,603.48l0,.06a6.58,6.58,0,0,0-1.14,3.8v43.45c0,3.24,2,5.77,4.62,5.77h82.22c2.59,0,4.62-2.53,4.62-5.77V607.34A6.6,6.6,0,0,0,161,603.41Zm-5.72,2.24-35.67,23a5.57,5.57,0,0,1-6.25,0l-35.7-23Zm4.22,45.14c0,1.8-1,3.05-1.9,3.05H75.39c-.9,0-1.9-1.25-1.9-3.05V607.34a4.46,4.46,0,0,1,.13-1.06l38.28,24.65a8.31,8.31,0,0,0,9.2,0l38.27-24.67a4.77,4.77,0,0,1,.14,1.08Z"/><text class="cls-7" transform="translate(28.15 688.86)">Recibe en tu email<tspan class="cls-8"><tspan x="45.48" y="21.6">tu póliza</tspan></tspan></text></g></g></svg>