<svg xmlns="http://www.w3.org/2000/svg" viewBox="0 0 1553.84 210.29"><defs><style>.cls-1{fill:#bad9e9;}.cls-2{fill:#6fb4d9;}.cls-3,.cls-6{fill:#137eb4;}.cls-4{fill:#fff;}.cls-5{fill:#5b5b5b;}.cls-6{font-size:18px;font-family:Poppins-SemiBold, Poppins;font-weight:600;}.cls-7,.cls-8{fill:#024863;}.cls-8{letter-spacing:0em;}</style></defs><g id="Capa_2" data-name="Capa 2"><g id="Capa_1-2" data-name="Capa 1"><rect class="cls-1" x="55.4" y="73.77" width="124.2" height="44.12" rx="10.31"/><path class="cls-2" d="M168.57,119.19H66.43a12.34,12.34,0,0,1-12.32-12.32V84.81A12.34,12.34,0,0,1,66.43,72.48H168.57A12.34,12.34,0,0,1,180.9,84.81v22.06A12.34,12.34,0,0,1,168.57,119.19ZM66.43,75.07a9.75,9.75,0,0,0-9.73,9.74v22.06a9.75,9.75,0,0,0,9.73,9.74H168.57a9.75,9.75,0,0,0,9.74-9.74V84.81a9.75,9.75,0,0,0-9.74-9.74Z"/><path class="cls-3" d="M140.93,148.06a1.36,1.36,0,0,1-1.33-1l-9.89-36.9A1.32,1.32,0,0,1,130,109a1.36,1.36,0,0,1,1.08-.54,1.12,1.12,0,0,1,.36,0l36.89,9.88a1.36,1.36,0,0,1,1,1,1.33,1.33,0,0,1-.28,1.24L149.24,128l-7.43,19.73A1.32,1.32,0,0,1,140.93,148.06Z"/><path class="cls-4" d="M131,109h0a.76.76,0,0,1,.21,0L149.69,114l18.45,5a.8.8,0,0,1,.57.56.81.81,0,0,1-.09.63l-19.34,7.28-.48.18-.18.48-7.28,19.34a.72.72,0,0,1-.41.12.81.81,0,0,1-.79-.6l-4.94-18.45L130.26,110a.78.78,0,0,1,.13-.69A.82.82,0,0,1,131,109m0-1.13a1.94,1.94,0,0,0-1.86,2.44l4.94,18.44,4.95,18.45a1.91,1.91,0,0,0,1.87,1.43,1.94,1.94,0,0,0,1.36-.56l7.38-19.62,19.62-7.39a1.93,1.93,0,0,0-.86-3.23L150,112.88l-18.45-4.95a2.23,2.23,0,0,0-.5-.07Z"/><path class="cls-3" d="M73.2,92.08a6.31,6.31,0,0,1,2.39-2.39,6.82,6.82,0,0,1,3.4-.86A6.7,6.7,0,0,1,82.85,90a5.93,5.93,0,0,1,2.32,3.13h-3a3.15,3.15,0,0,0-1.28-1.41A3.64,3.64,0,0,0,79,91.2a3.89,3.89,0,0,0-2,.54,3.6,3.6,0,0,0-1.39,1.52,4.86,4.86,0,0,0-.5,2.29,4.92,4.92,0,0,0,.5,2.29,3.54,3.54,0,0,0,1.39,1.52,3.89,3.89,0,0,0,2,.54,3.64,3.64,0,0,0,1.89-.48A3.23,3.23,0,0,0,82.14,98h3a5.85,5.85,0,0,1-2.31,3.13A6.71,6.71,0,0,1,79,102.26a6.82,6.82,0,0,1-3.4-.86A6.35,6.35,0,0,1,73.2,99a7.36,7.36,0,0,1,0-6.94Z"/><path class="cls-3" d="M89.35,101.64a4.73,4.73,0,0,1-1.9-1.89,5.74,5.74,0,0,1-.68-2.82,5.58,5.58,0,0,1,.7-2.83,5,5,0,0,1,1.93-1.89,5.9,5.9,0,0,1,5.46,0,4.94,4.94,0,0,1,1.93,1.89,5.58,5.58,0,0,1,.71,2.83,5.36,5.36,0,0,1-.73,2.82,4.88,4.88,0,0,1-2,1.89,5.63,5.63,0,0,1-2.75.67A5.42,5.42,0,0,1,89.35,101.64Zm4.05-2a2.56,2.56,0,0,0,1-1,3.52,3.52,0,0,0,.38-1.69A3.15,3.15,0,0,0,94,94.64a2.6,2.6,0,0,0-1.92-.8,2.52,2.52,0,0,0-1.89.8,3.18,3.18,0,0,0-.76,2.29,3.24,3.24,0,0,0,.74,2.28,2.44,2.44,0,0,0,1.88.8A2.75,2.75,0,0,0,93.4,99.67Z"/><path class="cls-3" d="M108.23,92.74A4.52,4.52,0,0,1,109.38,96v6.12h-2.64V96.38a2.73,2.73,0,0,0-.62-1.91,2.21,2.21,0,0,0-1.69-.67,2.29,2.29,0,0,0-1.73.67,2.68,2.68,0,0,0-.63,1.91v5.76H99.44V91.71h2.63V93A3.55,3.55,0,0,1,103.42,92a4.1,4.1,0,0,1,1.8-.39A4,4,0,0,1,108.23,92.74Z"/><path class="cls-3" d="M115,93.88v5a1,1,0,0,0,.25.77,1.3,1.3,0,0,0,.86.23h1.22v2.22h-1.65c-2.22,0-3.34-1.08-3.34-3.24v-5h-1.24V91.71h1.24V89.13H115v2.58h2.33v2.17Z"/><path class="cls-3" d="M123.15,92a3.71,3.71,0,0,1,1.87-.47v2.77h-.7a2.67,2.67,0,0,0-1.87.58,2.71,2.71,0,0,0-.63,2v5.19h-2.64V91.71h2.64v1.62A3.76,3.76,0,0,1,123.15,92Z"/><path class="cls-3" d="M126.74,94.08a4.61,4.61,0,0,1,1.72-1.88,4.53,4.53,0,0,1,2.42-.66,4.32,4.32,0,0,1,2,.47,4.2,4.2,0,0,1,1.4,1.19V91.71H137v10.43h-2.66v-1.52a4,4,0,0,1-1.4,1.21,4.61,4.61,0,0,1-4.46-.2,4.7,4.7,0,0,1-1.72-1.91,6.63,6.63,0,0,1,0-5.64Zm7.2,1.2a2.62,2.62,0,0,0-1-1,2.7,2.7,0,0,0-1.38-.37,2.62,2.62,0,0,0-1.35.36,2.6,2.6,0,0,0-1,1,3.25,3.25,0,0,0-.39,1.63,3.35,3.35,0,0,0,.39,1.65,2.8,2.8,0,0,0,1,1.08,2.59,2.59,0,0,0,1.34.38,2.8,2.8,0,0,0,1.38-.37,2.72,2.72,0,0,0,1-1.06,3.24,3.24,0,0,0,.38-1.64A3.3,3.3,0,0,0,133.94,95.28Z"/><path class="cls-3" d="M142.62,93.88v5a1,1,0,0,0,.26.77,1.27,1.27,0,0,0,.85.23H145v2.22H143.3q-3.33,0-3.33-3.24v-5h-1.24V91.71H140V89.13h2.65v2.58H145v2.17Z"/><path class="cls-3" d="M146.81,94.08a4.66,4.66,0,0,1,1.71-1.88,4.58,4.58,0,0,1,2.42-.66A4.34,4.34,0,0,1,153,92a4.2,4.2,0,0,1,1.4,1.19V91.71H157v10.43h-2.65v-1.52a4,4,0,0,1-1.4,1.21,4.33,4.33,0,0,1-2.07.48,4.4,4.4,0,0,1-2.4-.68,4.74,4.74,0,0,1-1.71-1.91,6.63,6.63,0,0,1,0-5.64Zm7.2,1.2a2.62,2.62,0,0,0-1-1,2.7,2.7,0,0,0-1.38-.37,2.62,2.62,0,0,0-1.35.36,2.6,2.6,0,0,0-1,1,3.25,3.25,0,0,0-.39,1.63,3.35,3.35,0,0,0,.39,1.65,2.73,2.73,0,0,0,1,1.08,2.57,2.57,0,0,0,1.34.38,2.8,2.8,0,0,0,1.38-.37,2.72,2.72,0,0,0,1-1.06,3.34,3.34,0,0,0,.38-1.64A3.41,3.41,0,0,0,154,95.28Z"/><path class="cls-3" d="M163.59,92a3.71,3.71,0,0,1,1.87-.47v2.77h-.7a2.65,2.65,0,0,0-1.87.58,2.71,2.71,0,0,0-.63,2v5.19h-2.64V91.71h2.64v1.62A3.76,3.76,0,0,1,163.59,92Z"/><rect class="cls-1" x="544.05" y="66.72" width="75.75" height="74.22" rx="12.43"/><path class="cls-2" d="M608.3,142H555.56c-7,0-12.63-5.34-12.63-11.91V77.57c0-6.56,5.67-11.9,12.63-11.9H608.3c7,0,12.63,5.34,12.63,11.9v52.52C620.93,136.66,615.26,142,608.3,142ZM555.56,67.78c-5.73,0-10.39,4.39-10.39,9.79v52.52c0,5.4,4.66,9.8,10.39,9.8H608.3c5.73,0,10.39-4.4,10.39-9.8V77.57c0-5.4-4.66-9.79-10.39-9.79Z"/><path class="cls-3" d="M562.09,74.41v1.84h-4.75v2.91H561V81h-3.64v4.81h-2.28V74.41Z"/><path class="cls-3" d="M565.36,85.35a4.24,4.24,0,0,1-1.64-1.64,5,5,0,0,1-.59-2.45,4.78,4.78,0,0,1,.61-2.44,4.31,4.31,0,0,1,1.67-1.64,5.17,5.17,0,0,1,4.72,0,4.31,4.31,0,0,1,1.67,1.64,5.17,5.17,0,0,1,0,4.89,4.46,4.46,0,0,1-1.7,1.64,5,5,0,0,1-2.38.57A4.81,4.81,0,0,1,565.36,85.35Zm3.51-1.72a2.22,2.22,0,0,0,.87-.9,3,3,0,0,0,.33-1.47,2.71,2.71,0,0,0-.68-2,2.19,2.19,0,0,0-1.65-.7,2.16,2.16,0,0,0-1.64.7,2.74,2.74,0,0,0-.66,2,2.84,2.84,0,0,0,.64,2,2.1,2.1,0,0,0,1.63.7A2.27,2.27,0,0,0,568.87,83.63Z"/><path class="cls-3" d="M577.52,77a3.2,3.2,0,0,1,1.62-.41V79h-.6a1.9,1.9,0,0,0-2.17,2.26v4.5h-2.28v-9h2.28v1.4A3.25,3.25,0,0,1,577.52,77Z"/><path class="cls-3" d="M594.56,77.64a3.84,3.84,0,0,1,1,2.84v5.3H593.3v-5a2.26,2.26,0,0,0-.54-1.62,2.21,2.21,0,0,0-2.94,0,2.22,2.22,0,0,0-.55,1.62v5H587v-5a2.26,2.26,0,0,0-.54-1.62,1.92,1.92,0,0,0-1.46-.56,2,2,0,0,0-1.49.56,2.22,2.22,0,0,0-.55,1.62v5h-2.28v-9H583v1.09a3,3,0,0,1,1.13-.89,3.53,3.53,0,0,1,1.53-.33,3.94,3.94,0,0,1,1.89.45,3.1,3.1,0,0,1,1.28,1.28,3.37,3.37,0,0,1,1.28-1.26,3.71,3.71,0,0,1,1.82-.47A3.62,3.62,0,0,1,594.56,77.64Z"/><line class="cls-1" x1="553.62" y1="96.71" x2="576.33" y2="96.71"/><path class="cls-4" d="M576.33,97.82H553.62a1.12,1.12,0,1,1,0-2.23h22.71a1.12,1.12,0,1,1,0,2.23Z"/><line class="cls-1" x1="587.53" y1="96.71" x2="610.24" y2="96.71"/><path class="cls-4" d="M610.24,97.82H587.53a1.12,1.12,0,1,1,0-2.23h22.71a1.12,1.12,0,1,1,0,2.23Z"/><line class="cls-1" x1="553.62" y1="103.42" x2="565.62" y2="103.42"/><path class="cls-4" d="M565.62,104.54h-12a1.12,1.12,0,1,1,0-2.24h12a1.12,1.12,0,1,1,0,2.24Z"/><line class="cls-1" x1="553.62" y1="110.14" x2="581.93" y2="110.14"/><path class="cls-4" d="M581.93,111.26H553.62a1.12,1.12,0,0,1,0-2.24h28.31a1.12,1.12,0,1,1,0,2.24Z"/><line class="cls-1" x1="576.33" y1="103.42" x2="610.24" y2="103.42"/><path class="cls-4" d="M610.24,104.54H576.33a1.12,1.12,0,1,1,0-2.24h33.91a1.12,1.12,0,0,1,0,2.24Z"/><path class="cls-1" d="M1513.9,80.3a2.9,2.9,0,0,0-2.31-1.29h-82.21a2.92,2.92,0,0,0-2.35,1.35h0a5.28,5.28,0,0,0-.92,3.06v43.45c0,2.43,1.47,4.41,3.27,4.41h82.21c1.8,0,3.27-2,3.27-4.41V83.42A5.28,5.28,0,0,0,1513.9,80.3Z"/><path class="cls-2" d="M1515,79.49a4.24,4.24,0,0,0-3.4-1.85h-82.21a4.24,4.24,0,0,0-3.45,1.92l0,.06a6.65,6.65,0,0,0-1.14,3.8v43.45c0,3.23,2,5.77,4.63,5.77h82.21c2.6,0,4.63-2.54,4.63-5.77V83.42A6.61,6.61,0,0,0,1515,79.49Zm-5.72,2.23-35.66,23a5.57,5.57,0,0,1-6.25,0l-35.7-23Zm4.22,45.15c0,1.79-1,3-1.9,3h-82.21c-.9,0-1.9-1.26-1.9-3V83.42a4.33,4.33,0,0,1,.13-1.06L1465.89,107a8.38,8.38,0,0,0,4.59,1.39,8.5,8.5,0,0,0,4.61-1.39l38.26-24.67a4.2,4.2,0,0,1,.14,1.08Z"/><rect class="cls-1" x="994.01" y="79.76" width="106.71" height="50.77" rx="3.91"/><path class="cls-2" d="M1096.79,131.85H997.93a5.39,5.39,0,0,1-5.13-5.61V84a5.38,5.38,0,0,1,5.13-5.6h98.86a5.39,5.39,0,0,1,5.14,5.6v42.2A5.39,5.39,0,0,1,1096.79,131.85ZM997.93,81.08a2.85,2.85,0,0,0-2.71,3v42.2a2.85,2.85,0,0,0,2.71,3h98.86a2.85,2.85,0,0,0,2.72-3V84a2.85,2.85,0,0,0-2.72-3Z"/><path class="cls-3" d="M1054.8,113.11a6.68,6.68,0,0,1-2.52,2.42,9.14,9.14,0,0,1-3.92,1.11v2.61h-2.06v-2.64a9.18,9.18,0,0,1-5.19-2,5.81,5.81,0,0,1-2-4.5h4.84a2.83,2.83,0,0,0,2.39,2.8V106.8a26.57,26.57,0,0,1-3.74-1.16,6,6,0,0,1-2.45-1.87,5.47,5.47,0,0,1-1-3.52,5.85,5.85,0,0,1,2-4.58,8.76,8.76,0,0,1,5.21-2V91h2.06v2.61a8.5,8.5,0,0,1,5,1.87,6.37,6.37,0,0,1,2.08,4.46h-4.88a2.93,2.93,0,0,0-.66-1.63,3,3,0,0,0-1.5-1v6.1a30.77,30.77,0,0,1,3.83,1.18,6,6,0,0,1,2.43,1.83,5.41,5.41,0,0,1,1,3.5A6.16,6.16,0,0,1,1054.8,113.11Zm-10.37-11.36a4.58,4.58,0,0,0,1.87,1.09V97.26a3,3,0,0,0-1.84.87,2.63,2.63,0,0,0-.68,1.9A2.35,2.35,0,0,0,1044.43,101.75Zm5.85,10.28a2.68,2.68,0,0,0,.7-1.87,2.26,2.26,0,0,0-.68-1.71,5.14,5.14,0,0,0-1.94-1.07V113A3.3,3.3,0,0,0,1050.28,112Z"/><path class="cls-5" d="M1471.49,10h-2a5,5,0,0,1,0-10h2a5,5,0,0,1,0,10Z"/><path class="cls-5" d="M1429.18,10h-2a5,5,0,0,1,0-10h2a5,5,0,0,1,0,10Z"/><path class="cls-5" d="M1386.87,10h-2a5,5,0,0,1,0-10h2a5,5,0,0,1,0,10Z"/><path class="cls-5" d="M1344.56,10h-2a5,5,0,0,1,0-10h2a5,5,0,0,1,0,10Z"/><path class="cls-5" d="M1302.24,10h-2a5,5,0,0,1,0-10h2a5,5,0,0,1,0,10Z"/><path class="cls-5" d="M1259.93,10h-2a5,5,0,0,1,0-10h2a5,5,0,0,1,0,10Z"/><path class="cls-5" d="M1217.62,10h-2a5,5,0,0,1,0-10h2a5,5,0,0,1,0,10Z"/><path class="cls-5" d="M1175.31,10h-2a5,5,0,0,1,0-10h2a5,5,0,0,1,0,10Z"/><path class="cls-5" d="M1133,10h-2a5,5,0,0,1,0-10h2a5,5,0,0,1,0,10Z"/><path class="cls-5" d="M1090.68,10h-2a5,5,0,0,1,0-10h2a5,5,0,0,1,0,10Z"/><path class="cls-5" d="M1048.37,10h-2a5,5,0,0,1,0-10h2a5,5,0,0,1,0,10Z"/><path class="cls-5" d="M1006.06,10h-2a5,5,0,0,1,0-10h2a5,5,0,0,1,0,10Z"/><path class="cls-5" d="M963.75,10h-2a5,5,0,0,1,0-10h2a5,5,0,0,1,0,10Z"/><path class="cls-5" d="M921.44,10h-2a5,5,0,0,1,0-10h2a5,5,0,0,1,0,10Z"/><path class="cls-5" d="M879.12,10h-2a5,5,0,0,1,0-10h2a5,5,0,0,1,0,10Z"/><path class="cls-5" d="M836.81,10h-2a5,5,0,0,1,0-10h2a5,5,0,0,1,0,10Z"/><path class="cls-5" d="M794.5,10h-2a5,5,0,0,1,0-10h2a5,5,0,0,1,0,10Z"/><path class="cls-5" d="M752.19,10h-2a5,5,0,0,1,0-10h2a5,5,0,0,1,0,10Z"/><path class="cls-5" d="M709.87,10h-2a5,5,0,0,1,0-10h2a5,5,0,0,1,0,10Z"/><path class="cls-5" d="M667.56,10h-2a5,5,0,0,1,0-10h2a5,5,0,0,1,0,10Z"/><path class="cls-5" d="M625.25,10h-2a5,5,0,0,1,0-10h2a5,5,0,0,1,0,10Z"/><path class="cls-5" d="M582.94,10h-2a5,5,0,0,1,0-10h2a5,5,0,0,1,0,10Z"/><path class="cls-5" d="M540.63,10h-2a5,5,0,0,1,0-10h2a5,5,0,0,1,0,10Z"/><path class="cls-5" d="M498.31,10h-2a5,5,0,0,1,0-10h2a5,5,0,0,1,0,10Z"/><path class="cls-5" d="M456,10h-2a5,5,0,0,1,0-10h2a5,5,0,0,1,0,10Z"/><path class="cls-5" d="M413.69,10h-2a5,5,0,0,1,0-10h2a5,5,0,0,1,0,10Z"/><path class="cls-5" d="M371.38,10h-2a5,5,0,0,1,0-10h2a5,5,0,0,1,0,10Z"/><path class="cls-5" d="M329.06,10h-2a5,5,0,0,1,0-10h2a5,5,0,0,1,0,10Z"/><path class="cls-5" d="M286.75,10h-2a5,5,0,0,1,0-10h2a5,5,0,0,1,0,10Z"/><path class="cls-5" d="M244.44,10h-2a5,5,0,0,1,0-10h2a5,5,0,0,1,0,10Z"/><path class="cls-5" d="M202.13,10h-2a5,5,0,0,1,0-10h2a5,5,0,0,1,0,10Z"/><path class="cls-5" d="M159.82,10h-2a5,5,0,0,1,0-10h2a5,5,0,0,1,0,10Z"/><path class="cls-5" d="M117.51,10h-2a5,5,0,0,1,0-10h2a5,5,0,0,1,0,10Z"/><path class="cls-5" d="M116.5,42.67a5,5,0,0,1-5-5V36.16a5,5,0,0,1,10,0v1.51A5,5,0,0,1,116.5,42.67Z"/><path class="cls-5" d="M1047.36,42.92a5,5,0,0,1-5-5v-2a5,5,0,0,1,10,0v2A5,5,0,0,1,1047.36,42.92Z"/><path class="cls-5" d="M1470.49,42.92a5,5,0,0,1-5-5v-2a5,5,0,0,1,10,0v2A5,5,0,0,1,1470.49,42.92Z"/><path class="cls-5" d="M581.93,42.92a5,5,0,0,1-5-5v-2a5,5,0,1,1,10,0v2A5,5,0,0,1,581.93,42.92Z"/><text class="cls-6" transform="translate(0 178.02)">Solo debés hacer click en<tspan class="cls-7"><tspan x="42.26" y="21.6">contratar ahora</tspan></tspan></text><text class="cls-6" transform="translate(490.37 178.02)">Llenar el formulario<tspan x="26.48" y="21.6">con </tspan><tspan class="cls-8" x="64.98" y="21.6">tus datos</tspan></text><text class="cls-6" transform="translate(956.68 178.02)">Una vez realizado el<tspan class="cls-7"><tspan x="12.99" y="21.6">pago electrónico</tspan></tspan></text><text class="cls-6" transform="translate(1385.13 178.02)">Recibe en tu email<tspan class="cls-7"><tspan x="45.48" y="21.6">tu póliza</tspan></tspan></text></g></g></svg>