<svg xmlns="http://www.w3.org/2000/svg" xmlns:xlink="http://www.w3.org/1999/xlink" viewBox="0 0 31.96 31.89"><defs><style>.cls-1{fill:url(#Degradado_sin_nombre_2);}.cls-2{fill:#fff;}</style><radialGradient id="Degradado_sin_nombre_2" cx="5.61" cy="28.32" r="29.81" gradientTransform="matrix(1, 0, 0, -1, 0, 33.89)" gradientUnits="userSpaceOnUse"><stop offset="0" stop-color="#9dd5f6"/><stop offset="0.07" stop-color="#98d3f5"/><stop offset="0.16" stop-color="#89cef3"/><stop offset="0.25" stop-color="#70c6ef"/><stop offset="0.35" stop-color="#4ebbea"/><stop offset="0.45" stop-color="#23ade3"/><stop offset="0.5" stop-color="#0da6e0"/><stop offset="1" stop-color="#2e77bc"/></radialGradient></defs><g id="Capa_2" data-name="Capa 2"><g id="Layer_1" data-name="Layer 1"><path class="cls-1" d="M31.77,0H0V31.89H31.77V21.36a1.16,1.16,0,0,0,.19-.7,1.08,1.08,0,0,0-.19-.7"/><path class="cls-2" d="M2.86,13.8l-.61-1.49L1.64,13.8m14.69-.6a.77.77,0,0,1-.44.08H14.8v-.83h1.1a1,1,0,0,1,.43.07.34.34,0,0,1,.18.33A.38.38,0,0,1,16.33,13.2Zm7.74.6-.62-1.49-.62,1.49ZM9.64,15.41H8.73V12.48L7.43,15.41H6.64L5.35,12.48v2.93H3.53l-.34-.83H1.33L1,15.41H0l1.6-3.74H2.94l1.52,3.54V11.67H5.91l1.17,2.54,1.07-2.54H9.64v3.74Zm3.65,0h-3V11.67h3v.78H11.2v.68h2v.76h-2v.75h2.09Zm4.21-2.73a1.07,1.07,0,0,1-.63,1,1,1,0,0,1,.44.31,1.12,1.12,0,0,1,.15.69v.73h-.9v-.47a1.14,1.14,0,0,0-.14-.73.88.88,0,0,0-.65-.16h-1v1.36h-.89V11.67H16a2.15,2.15,0,0,1,1.08.18A.87.87,0,0,1,17.5,12.68Zm1.43,2.73H18V11.67h.92Zm10.57,0H28.23l-1.69-2.8v2.8H24.72l-.35-.83H22.52l-.34.83H21.13A1.9,1.9,0,0,1,19.84,15a1.91,1.91,0,0,1-.48-1.43,2,2,0,0,1,.48-1.46,1.81,1.81,0,0,1,1.36-.44h.86v.8h-.84a.84.84,0,0,0-.69.23,1.22,1.22,0,0,0-.26.84,1.28,1.28,0,0,0,.25.88.86.86,0,0,0,.62.19h.4l1.26-2.94h1.34l1.51,3.54V11.67H27l1.57,2.61V11.67h.92v3.74ZM0,16.14H1.53l.34-.83h.77l.34.83H6v-.63l.26.64H7.81l.27-.65v.64h7.46V14.78h.14c.1,0,.13,0,.13.18v1.18h3.86v-.31a3.16,3.16,0,0,0,1.43.31h1.63l.34-.83h.77l.34.83h3.13v-.78l.48.78h2.5V10.93H27.81v.62l-.35-.62H24.92v.62l-.32-.62H21.16a3,3,0,0,0-1.49.31v-.31H17.3v.31a1.49,1.49,0,0,0-1-.31H7.62L7,12.28l-.6-1.35H3.71v.62l-.3-.62H1.08L0,13.41v2.73Z"/><path class="cls-2" d="M31.77,18.9H30.14a.63.63,0,0,0-.36.07.3.3,0,0,0-.13.27.27.27,0,0,0,.2.27.81.81,0,0,0,.34,0h.48a1.44,1.44,0,0,1,1,.3l.08.09m0,1.4a1.39,1.39,0,0,1-1.21.48H28.83V21h1.72a.5.5,0,0,0,.36-.09A.31.31,0,0,0,31,20.7a.28.28,0,0,0-.11-.24.43.43,0,0,0-.31-.09c-.84,0-1.89,0-1.89-1.15A1.12,1.12,0,0,1,30,18.1h1.78v-.74H30.12a1.84,1.84,0,0,0-1.12.31v-.31H26.56a1.7,1.7,0,0,0-1.07.31v-.31H21.12v.31a2.31,2.31,0,0,0-1.2-.31H17v.31a2,2,0,0,0-1.26-.31H12.56l-.74.8-.69-.8H6.32v5.21H11l.76-.81.72.81h2.91V21.35h.28A3,3,0,0,0,17,21.17v1.4h2.4V21.22h.12c.14,0,.16,0,.16.15v1.2h7.29a2,2,0,0,0,1.22-.33v.33h2.31a3,3,0,0,0,1.31-.24v-1Zm-3.56-1.49a1.06,1.06,0,0,1,.27.79c0,.81-.51,1.18-1.41,1.18H25.33V21h1.74a.5.5,0,0,0,.36-.09.34.34,0,0,0,.11-.25.31.31,0,0,0-.11-.24.47.47,0,0,0-.32-.09c-.84,0-1.88,0-1.88-1.15,0-.55.34-1.12,1.28-1.12H28.3v.8H26.66a.61.61,0,0,0-.36.07.28.28,0,0,0-.13.27.27.27,0,0,0,.19.27.89.89,0,0,0,.35,0h.48A1.46,1.46,0,0,1,28.21,19.87Zm-8.06-.23a.87.87,0,0,1-.44.08H18.63v-.84h1.09a1,1,0,0,1,.43.06.36.36,0,0,1,.19.34A.4.4,0,0,1,20.15,19.64Zm.54.46a1,1,0,0,1,.44.32,1.16,1.16,0,0,1,.15.68v.74h-.9v-.47a1.09,1.09,0,0,0-.15-.73c-.13-.13-.32-.16-.65-.16h-.95v1.36h-.9V18.1h2.06a2.15,2.15,0,0,1,1.07.18.86.86,0,0,1,.46.83A1,1,0,0,1,20.69,20.1Zm1.13-2h3v.78H22.71v.68h2v.76h-2v.74H24.8v.77h-3Zm-6,1.73H14.64v-.95H15.8c.33,0,.55.13.55.45S16.14,19.83,15.79,19.83Zm-2,1.67L12.38,20l1.37-1.48Zm-3.54-.44H8v-.74h2v-.76H8v-.68h2.24l1,1.09Zm7.1-1.73c0,1-.78,1.26-1.56,1.26H14.64v1.25H12.9L11.8,20.6l-1.14,1.24H7.12V18.1h3.6l1.09,1.23L13,18.1H15.8C16.51,18.1,17.31,18.3,17.31,19.33Z"/></g></g></svg>