<svg xmlns="http://www.w3.org/2000/svg" viewBox="0 0 41.14 25.45"><defs><style>.cls-1{fill:#eb001b;}.cls-2{fill:#f79e1b;}.cls-3{fill:#ff5a00;}</style></defs><g id="Capa_2" data-name="Capa 2"><g id="svg3409"><path class="cls-1" d="M15.73,12.72a12.76,12.76,0,0,1,4.84-10,12.73,12.73,0,1,0,0,20A12.69,12.69,0,0,1,15.73,12.72Z"/><path id="path22" class="cls-2" d="M41.14,12.72a12.7,12.7,0,0,1-20.57,10,12.63,12.63,0,0,0,4.84-10,12.76,12.76,0,0,0-4.84-10,12.71,12.71,0,0,1,20.57,10Z"/><path class="cls-3" d="M25.41,12.72a12.76,12.76,0,0,0-4.84-10,12.75,12.75,0,0,0,0,20A12.63,12.63,0,0,0,25.41,12.72Z"/></g></g></svg>