<svg xmlns="http://www.w3.org/2000/svg" viewBox="0 0 31.89 23.8"><defs><style>.cls-1{fill:#4fc3f7;}.cls-2{fill:#fafafa;}.cls-3{fill:#1a237e;}</style></defs><g id="Capa_2" data-name="Capa 2"><g id="Capa_1-2" data-name="Capa 1"><ellipse class="cls-1" cx="15.59" cy="11.94" rx="15.59" ry="11.24"/><path class="cls-2" d="M14.85,13a63.53,63.53,0,0,0-4.42-9.42A5.85,5.85,0,0,0,9.5,2.34L7.65.49c-.29-.28-1,0-1,0l-1.18.74L5.32,2.92l-.41,0a.69.69,0,0,0,0,1.37A4.24,4.24,0,0,1,7.5,5.41H9a4,4,0,0,1,1,1.77A6,6,0,0,1,10,8.52c-.24,4.24.76,5.23.76,5.23C6.77,11.22,0,11.61,0,11.61l.14,2.18,2,3.59c.66.15.54-.45,1.28-.36a53.89,53.89,0,0,0,9.84,0c1.09,0,1.42-.58,1.93-1.09C16,15.21,15.12,13.76,14.85,13Z"/><path class="cls-2" d="M16.62,13A63.72,63.72,0,0,1,21,3.57,5.9,5.9,0,0,1,22,2.34L23.82.49c.28-.28,1,0,1,0L26,1.43l.17,1.49.41,0a.69.69,0,0,1,0,1.37A4.21,4.21,0,0,0,24,5.41H22.52a3.94,3.94,0,0,0-1,1.77,5.5,5.5,0,0,0-.09,1.34c.23,4.24-.76,5.23-.76,5.23,4-2.53,10.87-2.17,10.87-2.17l-.12,2.17-2.17,3.63c-.67.15-.54-.45-1.28-.36a53.86,53.86,0,0,1-9.84,0c-1.09,0-1.42-.58-1.94-1.09C15.51,15.21,16.34,13.76,16.62,13Z"/><path class="cls-3" d="M30.34,6.74c-.23-.3-.47-.59-.72-.86l-.13-.14c-.23-.23-.46-.46-.7-.68l-.06,0a13.77,13.77,0,0,0-1.34-1,.92.92,0,0,0,.08-.4A1,1,0,0,0,26.4,2.51h0V1.66a1.08,1.08,0,0,0-.55-.94l-1-.57c-.16-.06-1-.35-1.41.08L22.11,1.56c-.28-.07-.65-.18-.88-.23A22.88,22.88,0,0,0,16,.7a22.34,22.34,0,0,0-6.54.93L8,.23C7.59-.2,6.77.09,6.56.18L5.62.72a1.09,1.09,0,0,0-.54.94v.86H5A1,1,0,0,0,4,3.56a1,1,0,0,0,.21.62,13.2,13.2,0,0,0-2,1.76,8.4,8.4,0,0,0-.65.8A8.8,8.8,0,0,0,0,11.94a9,9,0,0,0,1.4,5.33A13.36,13.36,0,0,0,5.48,21,21.24,21.24,0,0,0,16,23.8a23.5,23.5,0,0,0,5.41-.67A18.88,18.88,0,0,0,26.44,21a13.52,13.52,0,0,0,4.07-3.76,9,9,0,0,0,1.38-5.33A8.88,8.88,0,0,0,30.34,6.74Zm-2.21-.86c.17.16.33.33.48.5s.15.16.21.24a7.36,7.36,0,0,1,.6.78,8,8,0,0,1,1.42,3.8c-1.65,0-6.12.08-9.46,1.7a13.12,13.12,0,0,0,.33-4.4,6,6,0,0,1,.08-1.25,3.35,3.35,0,0,1,.77-1.47h.52a2.57,2.57,0,0,0,1.47-.47,3.23,3.23,0,0,1,1.88-.69c.05,0,.1,0,.15,0,.2.14.39.27.58.42l.16.14c.2.16.39.33.58.5ZM16,1.43a22.37,22.37,0,0,1,5.09.63l.45.13a5.54,5.54,0,0,0-.9,1.2,63.08,63.08,0,0,0-4.44,9.48l-.19.48-.24.63c-.07-.22-.16-.43-.24-.63s-.13-.33-.18-.48a64.64,64.64,0,0,0-4.44-9.48,6.73,6.73,0,0,0-.78-1.06A21.91,21.91,0,0,1,16,1.43ZM2.49,7.4a8.59,8.59,0,0,1,.59-.76l.21-.24.46-.48L4,5.68q.25-.24.51-.45l.22-.18.54-.41a3.6,3.6,0,0,1,1.64.67,2.5,2.5,0,0,0,1.47.47h.53a3.45,3.45,0,0,1,.76,1.47A4.87,4.87,0,0,1,9.75,8.5a13.37,13.37,0,0,0,.33,4.4,22.7,22.7,0,0,0-9-1.7A8.1,8.1,0,0,1,2.49,7.4Zm.58,9.45c-.14-.16-.28-.31-.41-.49A7.7,7.7,0,0,1,1,11.94v0c2.08,0,6.69.26,9.65,2.14a.35.35,0,0,0,.46-.07.36.36,0,0,0,0-.48s-.88-1-.66-5a7,7,0,0,0-.09-1.42,4.15,4.15,0,0,0-1.07-2,.36.36,0,0,0-.25-.11H8.38a1.79,1.79,0,0,1-1.05-.33A4.13,4.13,0,0,0,5,3.89a.34.34,0,0,1-.2-.08.35.35,0,0,1-.1-.25A.31.31,0,0,1,5,3.24l.41,0a.43.43,0,0,0,.22-.06l.28.28a.4.4,0,0,0,.26.1.23.23,0,0,0,.11,0l.88-.29.92.93a.4.4,0,0,0,.26.11.38.38,0,0,0,.26-.11.36.36,0,0,0,0-.51l-.83-.83.1-.11A.36.36,0,0,0,8,2.51a.36.36,0,0,0-.11-.25l-.72-.73a.37.37,0,0,0-.52,0,.37.37,0,0,0-.1.26.39.39,0,0,0,.1.26l.47.46,0,.05-.8.26L5.8,2.36v-.7A.38.38,0,0,1,6,1.34L6.87.83A1.19,1.19,0,0,1,7.51.74L9.36,2.6a5.35,5.35,0,0,1,.88,1.14,66.24,66.24,0,0,1,4.39,9.37c0,.16.12.33.19.51a3.66,3.66,0,0,1,.42,1.87,1.81,1.81,0,0,1-1.83,1.17c-.05,0-5.17.1-9.74,0A1.31,1.31,0,0,0,3.07,16.85ZM25.54,19.5a17.62,17.62,0,0,1-4.63,1.75,21.69,21.69,0,0,1-4.95.59,19.35,19.35,0,0,1-9.6-2.33,13.59,13.59,0,0,1-2.78-2.09l.08,0c4.58.09,9.71,0,9.76,0a2.65,2.65,0,0,0,2.31-1.21A2.65,2.65,0,0,0,18,17.38c.05,0,5.18.1,9.76,0a.81.81,0,0,1,.35.18A12.42,12.42,0,0,1,25.54,19.5Zm3.71-3.14c-.18.24-.38.46-.58.68a1.63,1.63,0,0,0-.87-.38h0c-4.57.09-9.69,0-9.74,0a1.81,1.81,0,0,1-1.83-1.16,3.68,3.68,0,0,1,.43-1.87l.19-.51a64,64,0,0,1,4.39-9.37A5.3,5.3,0,0,1,22.1,2.6L24,.75a1.07,1.07,0,0,1,.59.05l.94.54a.38.38,0,0,1,.18.32v.7l-.46.47-.79-.27-.05-.05.47-.46a.4.4,0,0,0,.11-.26.38.38,0,0,0-.11-.26.36.36,0,0,0-.51,0l-.73.73a.35.35,0,0,0-.1.25.35.35,0,0,0,.1.26l.11.11-.83.83a.36.36,0,0,0,0,.51.36.36,0,0,0,.25.11.36.36,0,0,0,.26-.11l.93-.93.87.29a.25.25,0,0,0,.12,0,.42.42,0,0,0,.26-.1l.28-.28a.4.4,0,0,0,.22.06l.37,0a.32.32,0,0,1,.32.32.39.39,0,0,1-.1.25.37.37,0,0,1-.21.08,4.17,4.17,0,0,0-2.31.83,1.77,1.77,0,0,1-1.05.33H22.4a.36.36,0,0,0-.26.11,4.3,4.3,0,0,0-1.06,2A5.77,5.77,0,0,0,21,8.54c.22,3.93-.66,5-.66,5a.37.37,0,0,0,0,.48.36.36,0,0,0,.48.08c3.2-2,8.39-2.15,10.1-2.13h0A7.78,7.78,0,0,1,29.25,16.36Z"/></g></g></svg>