<svg xmlns="http://www.w3.org/2000/svg" viewBox="0 0 1452.81 140.12"><defs><style>.cls-1{fill:#bad9e9;}.cls-2{fill:#6fb4d9;}.cls-3{fill:#137eb4;}.cls-4{fill:#fff;}.cls-5{fill:#0bb592;}</style></defs><g id="Capa_2" data-name="Capa 2"><g id="Capa_1-2" data-name="Capa 1"><rect class="cls-1" x="1.21" y="51.76" width="116.07" height="41.23" rx="10.31"/><path class="cls-2" d="M107,94.21H11.52A11.54,11.54,0,0,1,0,82.69V62.07A11.54,11.54,0,0,1,11.52,50.55H107a11.53,11.53,0,0,1,11.51,11.52V82.69A11.53,11.53,0,0,1,107,94.21ZM11.52,53a9.11,9.11,0,0,0-9.1,9.1V82.69a9.11,9.11,0,0,0,9.1,9.1H107a9.11,9.11,0,0,0,9.1-9.1V62.07A9.11,9.11,0,0,0,107,53Z"/><path class="cls-3" d="M82.78,126.8a1.46,1.46,0,0,1-1.42-1.09L70.74,86.08A1.4,1.4,0,0,1,71,84.81a1.46,1.46,0,0,1,1.16-.59,1.32,1.32,0,0,1,.39.06L112.17,94.9a1.45,1.45,0,0,1,1,1,1.5,1.5,0,0,1-.3,1.34l-21.2,8-8,21.2A1.5,1.5,0,0,1,82.78,126.8Z"/><path class="cls-4" d="M72.15,84.83h0l.23,0L92.2,90.17,112,95.48a.87.87,0,0,1,.52,1.28l-20.78,7.82-.51.2-.19.51-7.83,20.78a.81.81,0,0,1-.44.12.87.87,0,0,1-.84-.64l-5.31-19.82L71.32,85.92a.83.83,0,0,1,.15-.75.87.87,0,0,1,.68-.34m0-1.21a2.08,2.08,0,0,0-2,2.61l5.31,19.82,5.31,19.81a2.07,2.07,0,0,0,2,1.54,2,2,0,0,0,1.46-.61l7.94-21.07,21.07-7.94a2.07,2.07,0,0,0-.93-3.47L92.51,89,72.69,83.69a2.05,2.05,0,0,0-.54-.07Z"/><path class="cls-3" d="M17.84,68.87a5.78,5.78,0,0,1,2.24-2.23,6.25,6.25,0,0,1,3.17-.8,6.28,6.28,0,0,1,3.61,1A5.52,5.52,0,0,1,29,69.81H26.19A2.9,2.9,0,0,0,25,68.49a3.52,3.52,0,0,0-1.77-.44,3.64,3.64,0,0,0-1.9.5A3.46,3.46,0,0,0,20,70a5.21,5.21,0,0,0,0,4.28,3.43,3.43,0,0,0,1.31,1.43,3.64,3.64,0,0,0,1.9.5A3.43,3.43,0,0,0,25,75.73a3,3,0,0,0,1.19-1.33H29a5.5,5.5,0,0,1-2.15,2.93,6.27,6.27,0,0,1-3.62,1,6.35,6.35,0,0,1-3.17-.8,5.92,5.92,0,0,1-2.24-2.23A6.43,6.43,0,0,1,17,72.12,6.51,6.51,0,0,1,17.84,68.87Z"/><path class="cls-3" d="M32.93,77.81A4.56,4.56,0,0,1,31.16,76a5.27,5.27,0,0,1-.64-2.64,5.17,5.17,0,0,1,.66-2.64A4.64,4.64,0,0,1,33,69a5.55,5.55,0,0,1,5.1,0,4.6,4.6,0,0,1,1.81,1.77,5.17,5.17,0,0,1,.66,2.64A5.09,5.09,0,0,1,39.87,76,4.72,4.72,0,0,1,38,77.81a5.41,5.41,0,0,1-2.58.62A5.18,5.18,0,0,1,32.93,77.81ZM36.72,76a2.34,2.34,0,0,0,.94-1A3.21,3.21,0,0,0,38,73.4a2.92,2.92,0,0,0-.73-2.14,2.38,2.38,0,0,0-1.78-.75,2.33,2.33,0,0,0-1.77.75A3,3,0,0,0,33,73.4a3,3,0,0,0,.69,2.14,2.28,2.28,0,0,0,1.75.74A2.51,2.51,0,0,0,36.72,76Z"/><path class="cls-3" d="M50.57,69.48a4.22,4.22,0,0,1,1.08,3.08v5.71H49.18V72.89a2.54,2.54,0,0,0-.58-1.79A2.06,2.06,0,0,0,47,70.48a2.12,2.12,0,0,0-1.61.62,2.54,2.54,0,0,0-.59,1.79v5.38H42.36V68.53h2.46v1.21a3.43,3.43,0,0,1,1.26-1,3.9,3.9,0,0,1,1.68-.36A3.74,3.74,0,0,1,50.57,69.48Z"/><path class="cls-3" d="M56.85,70.55v4.71a1,1,0,0,0,.24.72,1.21,1.21,0,0,0,.8.22H59v2.07H57.49q-3.12,0-3.12-3v-4.7H53.21v-2h1.16V66.12h2.48v2.41H59v2Z"/><path class="cls-3" d="M64.52,68.83a3.37,3.37,0,0,1,1.75-.44V71h-.65a2.06,2.06,0,0,0-2.34,2.45v4.85H60.81V68.53h2.47V70A3.35,3.35,0,0,1,64.52,68.83Z"/><path class="cls-3" d="M67.88,70.74a4.2,4.2,0,0,1,3.86-2.37,4,4,0,0,1,1.91.44A3.86,3.86,0,0,1,75,69.92V68.53h2.48v9.74H75V76.85A3.72,3.72,0,0,1,73.65,78a4,4,0,0,1-1.93.45,4.14,4.14,0,0,1-2.24-.63A4.36,4.36,0,0,1,67.88,76a5.65,5.65,0,0,1-.59-2.65A5.59,5.59,0,0,1,67.88,70.74Zm6.73,1.12a2.45,2.45,0,0,0-1-1,2.49,2.49,0,0,0-1.28-.35,2.44,2.44,0,0,0-1.27.34,2.51,2.51,0,0,0-.94,1,3.08,3.08,0,0,0-.36,1.52,3.16,3.16,0,0,0,.36,1.54,2.68,2.68,0,0,0,1,1,2.54,2.54,0,0,0,3.5-1,3.56,3.56,0,0,0,0-3.08Z"/><path class="cls-3" d="M82.72,70.55v4.71A1,1,0,0,0,83,76a1.21,1.21,0,0,0,.8.22H84.9v2.07H83.35q-3.12,0-3.12-3v-4.7H79.07v-2h1.16V66.12h2.49v2.41H84.9v2Z"/><path class="cls-3" d="M86.63,70.74A4.34,4.34,0,0,1,88.23,69a4.26,4.26,0,0,1,2.26-.61,4,4,0,0,1,1.91.44,3.77,3.77,0,0,1,1.31,1.11V68.53h2.48v9.74H93.71V76.85A3.64,3.64,0,0,1,92.4,78a4,4,0,0,1-1.93.45,4.14,4.14,0,0,1-2.24-.63A4.43,4.43,0,0,1,86.63,76,5.78,5.78,0,0,1,86,73.36,5.71,5.71,0,0,1,86.63,70.74Zm6.73,1.12a2.43,2.43,0,0,0-1-1,2.55,2.55,0,0,0-1.29-.35,2.41,2.41,0,0,0-1.26.34,2.44,2.44,0,0,0-.94,1,3.08,3.08,0,0,0-.36,1.52,3.16,3.16,0,0,0,.36,1.54,2.6,2.6,0,0,0,1,1,2.43,2.43,0,0,0,1.25.35,2.55,2.55,0,0,0,1.29-.35,2.49,2.49,0,0,0,1-1,3.56,3.56,0,0,0,0-3.08Z"/><path class="cls-3" d="M102.3,68.83a3.43,3.43,0,0,1,1.76-.44V71h-.66a2.48,2.48,0,0,0-1.75.55,2.51,2.51,0,0,0-.59,1.9v4.85H98.6V68.53h2.46V70A3.42,3.42,0,0,1,102.3,68.83Z"/><rect class="cls-1" x="482.76" y="53.9" width="81.81" height="85" rx="12.43"/><path class="cls-2" d="M552.15,140.12h-57a13.66,13.66,0,0,1-13.64-13.64V66.33a13.66,13.66,0,0,1,13.64-13.64h57a13.65,13.65,0,0,1,13.63,13.64v60.15A13.65,13.65,0,0,1,552.15,140.12Zm-57-85A11.23,11.23,0,0,0,484,66.33v60.15a11.23,11.23,0,0,0,11.22,11.22h57a11.23,11.23,0,0,0,11.22-11.22V66.33a11.23,11.23,0,0,0-11.22-11.22Z"/><path class="cls-3" d="M502.24,62.13v2h-5.12v3.15H501v2h-3.92v5.19h-2.47V62.13Z"/><path class="cls-3" d="M505.77,74A4.56,4.56,0,0,1,504,72.18a5.37,5.37,0,0,1-.64-2.64A5.17,5.17,0,0,1,504,66.9a4.64,4.64,0,0,1,1.8-1.77,5.57,5.57,0,0,1,5.11,0,4.64,4.64,0,0,1,1.8,1.77,5.17,5.17,0,0,1,.66,2.64,5.09,5.09,0,0,1-.68,2.64A4.72,4.72,0,0,1,510.88,74a5.37,5.37,0,0,1-2.57.62A5.22,5.22,0,0,1,505.77,74Zm3.79-1.85a2.29,2.29,0,0,0,.94-1,3.21,3.21,0,0,0,.36-1.58,3,3,0,0,0-.73-2.14,2.41,2.41,0,0,0-1.79-.74,2.35,2.35,0,0,0-1.77.74,3,3,0,0,0-.71,2.14,3,3,0,0,0,.69,2.14,2.31,2.31,0,0,0,1.76.75A2.51,2.51,0,0,0,509.56,72.1Z"/><path class="cls-3" d="M518.9,65a3.41,3.41,0,0,1,1.76-.44v2.58H520a2.48,2.48,0,0,0-1.75.55,2.51,2.51,0,0,0-.59,1.9v4.85H515.2V64.67h2.46v1.51A3.42,3.42,0,0,1,518.9,65Z"/><path class="cls-3" d="M537.31,65.63a4.15,4.15,0,0,1,1.1,3.07v5.71h-2.47V69a2.42,2.42,0,0,0-.58-1.75,2,2,0,0,0-1.58-.61,2.09,2.09,0,0,0-1.59.61A2.38,2.38,0,0,0,531.6,69v5.38h-2.47V69a2.42,2.42,0,0,0-.58-1.75,2,2,0,0,0-1.58-.61,2.12,2.12,0,0,0-1.61.61,2.42,2.42,0,0,0-.59,1.75v5.38h-2.46V64.67h2.46v1.18a3.33,3.33,0,0,1,1.22-1,3.76,3.76,0,0,1,1.65-.35,4.27,4.27,0,0,1,2,.48,3.36,3.36,0,0,1,1.39,1.38A3.58,3.58,0,0,1,532.45,65a4,4,0,0,1,2-.51A3.9,3.9,0,0,1,537.31,65.63Z"/><line class="cls-1" x1="493.1" y1="86.22" x2="517.62" y2="86.22"/><path class="cls-4" d="M517.62,87.42H493.1a1.21,1.21,0,1,1,0-2.41h24.52a1.21,1.21,0,1,1,0,2.41Z"/><line class="cls-1" x1="529.71" y1="86.22" x2="554.24" y2="86.22"/><path class="cls-4" d="M554.24,87.42H529.71a1.21,1.21,0,1,1,0-2.41h24.53a1.21,1.21,0,1,1,0,2.41Z"/><line class="cls-1" x1="493.1" y1="93.47" x2="506.05" y2="93.47"/><path class="cls-4" d="M506.05,94.68H493.1a1.21,1.21,0,0,1,0-2.42h12.95a1.21,1.21,0,0,1,0,2.42Z"/><line class="cls-1" x1="493.1" y1="100.72" x2="523.67" y2="100.72"/><path class="cls-4" d="M523.67,101.93H493.1a1.21,1.21,0,1,1,0-2.41h30.57a1.21,1.21,0,1,1,0,2.41Z"/><line class="cls-1" x1="517.62" y1="93.47" x2="554.24" y2="93.47"/><path class="cls-4" d="M554.24,94.68H517.62a1.21,1.21,0,0,1,0-2.42h36.62a1.21,1.21,0,1,1,0,2.42Z"/><path class="cls-1" d="M1448.7,100.3h-73c-1.6,0-2.9-1.76-2.9-3.92V57.82c0-2.16,1.3-3.92,2.9-3.92h73a2.56,2.56,0,0,1,2,1.15,4.65,4.65,0,0,1,.85,2.77V96.38C1451.6,98.54,1450.31,100.3,1448.7,100.3Z"/><path class="cls-1" d="M1408.79,77.74l-35.14-22.63h77.1l-35.1,22.63A6.13,6.13,0,0,1,1408.79,77.74Z"/><path class="cls-2" d="M1451.73,54.33a3.8,3.8,0,0,0-3-1.64h-73a3.79,3.79,0,0,0-3.06,1.7l0,.06a5.83,5.83,0,0,0-1,3.37V96.38c0,2.88,1.81,5.13,4.11,5.13h73c2.3,0,4.1-2.25,4.1-5.13V57.82A5.9,5.9,0,0,0,1451.73,54.33Zm-5.08,2L1415,76.72a5,5,0,0,1-5.55,0l-31.69-20.41Zm3.74,40.06c0,1.6-.89,2.71-1.68,2.71h-73c-.8,0-1.69-1.11-1.69-2.71V57.82a4,4,0,0,1,.12-.94l34,21.88a7.4,7.4,0,0,0,8.17,0l34-21.9a3.83,3.83,0,0,1,.12,1Z"/><rect class="cls-1" x="935.9" y="53.9" width="106.39" height="46.39" rx="3.91"/><path class="cls-2" d="M1038.38,101.5H939.82a5.12,5.12,0,0,1-5.12-5.12V57.82a5.13,5.13,0,0,1,5.12-5.13h98.56a5.13,5.13,0,0,1,5.13,5.13V96.38A5.13,5.13,0,0,1,1038.38,101.5ZM939.82,55.11a2.72,2.72,0,0,0-2.71,2.71V96.38a2.72,2.72,0,0,0,2.71,2.71h98.56a2.71,2.71,0,0,0,2.71-2.71V57.82a2.71,2.71,0,0,0-2.71-2.71Z"/><path class="cls-3" d="M996.58,85.74a6,6,0,0,1-2.3,2.21,8.33,8.33,0,0,1-3.58,1v2.39h-1.89V88.94a8.32,8.32,0,0,1-4.74-1.78,5.26,5.26,0,0,1-1.86-4.11h4.42a2.6,2.6,0,0,0,2.18,2.56V80a26.45,26.45,0,0,1-3.42-1.06,5.5,5.5,0,0,1-2.24-1.71,5,5,0,0,1-.94-3.21,5.32,5.32,0,0,1,1.84-4.19A7.93,7.93,0,0,1,988.81,68V65.57h1.89V68a7.61,7.61,0,0,1,4.52,1.7,5.74,5.74,0,0,1,1.9,4.07h-4.45a2.81,2.81,0,0,0-.6-1.49,2.85,2.85,0,0,0-1.37-.9v5.58A28.61,28.61,0,0,1,994.19,78a5.48,5.48,0,0,1,2.23,1.68,5,5,0,0,1,.94,3.2A5.6,5.6,0,0,1,996.58,85.74ZM987.1,75.37a4.28,4.28,0,0,0,1.71,1V71.26a2.71,2.71,0,0,0-1.68.79,2.42,2.42,0,0,0-.62,1.74A2.19,2.19,0,0,0,987.1,75.37Zm5.35,9.39a2.52,2.52,0,0,0,.64-1.71,2.09,2.09,0,0,0-.62-1.57,4.91,4.91,0,0,0-1.77-1v5.16A3,3,0,0,0,992.45,84.76Z"/><path class="cls-1" d="M1413.92,96a5,5,0,0,1-5-5V89a5,5,0,0,1,10,0v2A5,5,0,0,1,1413.92,96Z"/><path class="cls-5" d="M1413.23,10h-2a5,5,0,0,1,0-10h2a5,5,0,0,1,0,10Z"/><path class="cls-5" d="M1370.92,10h-2a5,5,0,0,1,0-10h2a5,5,0,0,1,0,10Z"/><path class="cls-5" d="M1328.61,10h-2a5,5,0,0,1,0-10h2a5,5,0,0,1,0,10Z"/><path class="cls-5" d="M1286.29,10h-2a5,5,0,0,1,0-10h2a5,5,0,0,1,0,10Z"/><path class="cls-5" d="M1244,10h-2a5,5,0,0,1,0-10h2a5,5,0,0,1,0,10Z"/><path class="cls-5" d="M1201.67,10h-2a5,5,0,0,1,0-10h2a5,5,0,0,1,0,10Z"/><path class="cls-5" d="M1159.36,10h-2a5,5,0,0,1,0-10h2a5,5,0,0,1,0,10Z"/><path class="cls-5" d="M1117.05,10h-2a5,5,0,0,1,0-10h2a5,5,0,0,1,0,10Z"/><path class="cls-5" d="M1074.73,10h-2a5,5,0,0,1,0-10h2a5,5,0,0,1,0,10Z"/><path class="cls-5" d="M1032.42,10h-2a5,5,0,0,1,0-10h2a5,5,0,0,1,0,10Z"/><path class="cls-5" d="M990.11,10h-2a5,5,0,0,1,0-10h2a5,5,0,0,1,0,10Z"/><path class="cls-5" d="M947.8,10h-2a5,5,0,0,1,0-10h2a5,5,0,0,1,0,10Z"/><path class="cls-5" d="M905.48,10h-2a5,5,0,0,1,0-10h2a5,5,0,0,1,0,10Z"/><path class="cls-5" d="M863.17,10h-2a5,5,0,0,1,0-10h2a5,5,0,0,1,0,10Z"/><path class="cls-5" d="M820.86,10h-2a5,5,0,0,1,0-10h2a5,5,0,0,1,0,10Z"/><path class="cls-5" d="M778.55,10h-2a5,5,0,0,1,0-10h2a5,5,0,0,1,0,10Z"/><path class="cls-5" d="M736.24,10h-2a5,5,0,0,1,0-10h2a5,5,0,0,1,0,10Z"/><path class="cls-5" d="M693.92,10h-2a5,5,0,0,1,0-10h2a5,5,0,0,1,0,10Z"/><path class="cls-5" d="M651.61,10h-2a5,5,0,0,1,0-10h2a5,5,0,0,1,0,10Z"/><path class="cls-5" d="M609.3,10h-2a5,5,0,0,1,0-10h2a5,5,0,0,1,0,10Z"/><path class="cls-5" d="M567,10h-2a5,5,0,0,1,0-10h2a5,5,0,0,1,0,10Z"/><path class="cls-5" d="M524.68,10h-2a5,5,0,0,1,0-10h2a5,5,0,0,1,0,10Z"/><path class="cls-5" d="M482.36,10h-2a5,5,0,0,1,0-10h2a5,5,0,0,1,0,10Z"/><path class="cls-5" d="M440.05,10h-2a5,5,0,0,1,0-10h2a5,5,0,0,1,0,10Z"/><path class="cls-5" d="M397.74,10h-2a5,5,0,0,1,0-10h2a5,5,0,0,1,0,10Z"/><path class="cls-5" d="M355.43,10h-2a5,5,0,0,1,0-10h2a5,5,0,0,1,0,10Z"/><path class="cls-5" d="M313.11,10h-2a5,5,0,0,1,0-10h2a5,5,0,0,1,0,10Z"/><path class="cls-5" d="M270.8,10h-2a5,5,0,0,1,0-10h2a5,5,0,0,1,0,10Z"/><path class="cls-5" d="M228.49,10h-2a5,5,0,0,1,0-10h2a5,5,0,0,1,0,10Z"/><path class="cls-5" d="M186.18,10h-2a5,5,0,0,1,0-10h2a5,5,0,0,1,0,10Z"/><path class="cls-5" d="M143.87,10h-2a5,5,0,0,1,0-10h2a5,5,0,0,1,0,10Z"/><path class="cls-5" d="M101.55,10h-2a5,5,0,0,1,0-10h2a5,5,0,0,1,0,10Z"/><path class="cls-5" d="M59.25,10h-2a5,5,0,0,1,0-10h2a5,5,0,0,1,0,10Z"/><path class="cls-5" d="M58.24,42.67a5,5,0,0,1-5-5V36.16a5,5,0,0,1,10,0v1.51A5,5,0,0,1,58.24,42.67Z"/><path class="cls-5" d="M989.1,42.92a5,5,0,0,1-5-5v-2a5,5,0,1,1,10,0v2A5,5,0,0,1,989.1,42.92Z"/><path class="cls-5" d="M1412.22,42.92a5,5,0,0,1-5-5v-2a5,5,0,0,1,10,0v2A5,5,0,0,1,1412.22,42.92Z"/><path class="cls-5" d="M523.67,42.92a5,5,0,0,1-5-5v-2a5,5,0,1,1,10,0v2A5,5,0,0,1,523.67,42.92Z"/></g></g></svg>