<svg xmlns="http://www.w3.org/2000/svg" viewBox="0 0 19.77 19.81"><defs><style>.cls-1{fill:#137eb4;}</style></defs><g id="Capa_2" data-name="Capa 2"><g id="Capa_1-2" data-name="Capa 1"><path class="cls-1" d="M19.77,17.83c0-.53-.2-.73-.73-.73H.74a1.21,1.21,0,0,0-.19,0,.55.55,0,0,0-.51.42H0v1.86H0c0,.24.11.33.39.43H19.34a.73.73,0,0,0,.43-.78C19.75,18.63,19.77,18.23,19.77,17.83Z"/><path class="cls-1" d="M17.85,9.21a.55.55,0,0,0,.53-.51c0-.14,0-.29,0-.43s0-.22-.22-.22H1.81c-.43,0-.43,0-.43.42s.19.74.72.74H17.85Z"/><path class="cls-1" d="M6.68,15.94h2c.13,0,.15,0,.15-.15,0-1.75,0-3.51,0-5.26,0-.13,0-.16-.16-.16-.66,0-1.31,0-2,0-.17,0-.2.06-.19.21v5.2C6.53,15.89,6.54,15.94,6.68,15.94Z"/><path class="cls-1" d="M13.07,10.37c-.66,0-1.33,0-2,0-.12,0-.16,0-.16.16v5.26c0,.13,0,.15.16.15h2c.13,0,.15,0,.15-.16V10.56C13.24,10.43,13.22,10.37,13.07,10.37Z"/><path class="cls-1" d="M4.31,10.37q-1,0-2,0c-.14,0-.15.06-.15.17v5.24c0,.13,0,.16.15.16h2c.15,0,.18,0,.18-.18,0-.86,0-1.73,0-2.59s0-1.75,0-2.63C4.47,10.42,4.44,10.37,4.31,10.37Z"/><path class="cls-1" d="M17.46,10.37c-.67,0-1.33,0-2,0-.14,0-.17.05-.17.18v5.22c0,.13,0,.17.17.17h2c.14,0,.17,0,.17-.17V10.55C17.62,10.43,17.6,10.37,17.46,10.37Z"/><path class="cls-1" d="M.75,6.9c3.16,0,6.31,0,9.47,0H19a.92.92,0,0,0,.33,0,.56.56,0,0,0,.39-.48.55.55,0,0,0-.28-.57l-1.62-1L10,0H9.73a1.54,1.54,0,0,0-.35.15l-3.18,2L.32,5.74A.63.63,0,0,0,0,6.15v.31A.71.71,0,0,0,.75,6.9ZM9.46,3.41c.28,0,.57,0,.85,0a.57.57,0,0,1,.54.61.57.57,0,0,1-.58.55H9.5a.58.58,0,0,1,0-1.16Z"/></g></g></svg>