<svg xmlns="http://www.w3.org/2000/svg" viewBox="0 0 46.05 14.9"><defs><style>.cls-1{fill:#00579f;}.cls-2{fill:#faa61a;}</style></defs><g id="Capa_2" data-name="Capa 2"><g id="Layer_1" data-name="Layer 1"><g id="g4158"><polygon id="polygon9" class="cls-1" points="19.95 14.69 16.22 14.69 18.56 0.26 22.29 0.26 19.95 14.69"/><path id="path11" class="cls-1" d="M33.48.61A9.31,9.31,0,0,0,30.13,0c-3.68,0-6.28,2-6.29,4.77,0,2.07,1.85,3.23,3.27,3.92S29,9.85,29,10.48c0,1-1.17,1.41-2.24,1.41a7.51,7.51,0,0,1-3.5-.76l-.49-.23-.52,3.23a11.15,11.15,0,0,0,4.16.77c3.91,0,6.46-1.93,6.49-4.92,0-1.65-1-2.9-3.13-3.93C28.5,5.39,27.7,4.94,27.7,4.27S28.38,3,29.85,3a6.19,6.19,0,0,1,2.78.56l.34.15L33.48.61Z"/><path id="path13" class="cls-1" d="M38.43,9.58c.31-.83,1.49-4,1.49-4s.31-.84.49-1.38l.26,1.24.86,4.18ZM43,.26H40.15a1.84,1.84,0,0,0-1.95,1.2L32.66,14.69h3.92l.78-2.17h4.79c.11.51.44,2.17.44,2.17h3.46L43,.26Z"/><path id="path15" class="cls-1" d="M13.11.26,9.45,10.1l-.39-2a11.06,11.06,0,0,0-5.16-6L7.24,14.67h3.95L17.05.26Z"/><path id="path17" class="cls-2" d="M6.06.26h-6L0,.55C4.68,1.75,7.78,4.64,9.06,8.1L7.75,1.47A1.54,1.54,0,0,0,6.06.26Z"/></g></g></g></svg>